<svg xmlns="http://www.w3.org/2000/svg" xmlns:xlink="http://www.w3.org/1999/xlink" id="Layer_1" x="0" y="0" version="1.1" viewBox="0 0 135 135" style="enable-background:new 0 0 135 135" xml:space="preserve"><style type="text/css">.st0{fill:#1677f0}.st1{fill:#fff}</style><g><path d="M135.1,67.8c0-37.3-30.2-67.5-67.5-67.5S0.1,30.5,0.1,67.8c0,33.7,24.7,61.6,57,66.7V87.3H39.9V67.8H57V53 C57,36,67.1,26.7,82.5,26.7c7.4,0,15.1,1.3,15.1,1.3v16.6h-8.5c-8.4,0-11,5.2-11,10.5v12.7h18.7l-3,19.5H78.1v47.2 C110.4,129.4,135.1,101.5,135.1,67.8z" class="st0"/><path d="M93.8,87.3l3-19.5H78.1V55.2c0-5.3,2.6-10.5,11-10.5h8.5V28c0,0-7.7-1.3-15.1-1.3C67.1,26.7,57,36,57,53v14.9 H39.9v19.5H57v47.2c3.4,0.5,7,0.8,10.5,0.8c3.6,0,7.1-0.3,10.5-0.8V87.3H93.8z" class="st1"/></g></svg>