<svg xmlns="http://www.w3.org/2000/svg" xmlns:xlink="http://www.w3.org/1999/xlink" id="Layer_1" x="0" y="0" version="1.1" viewBox="0 0 135 135" style="enable-background:new 0 0 135 135" xml:space="preserve"><style type="text/css">.st1{fill:#fff}</style><g><g><defs><circle id="SVGID_1_" cx="67.6" cy="68" r="67.5"/></defs><clipPath id="SVGID_00000036242340689691138690000006566922191407495572_"><use xlink:href="#SVGID_1_" style="overflow:visible"/></clipPath><g style="clip-path:url(#SVGID_00000036242340689691138690000006566922191407495572_)"><defs><rect id="SVGID_00000024688882664478783700000002005032596389526690_" width="145" height="145" x="-4.9" y="-4.5"/></defs><clipPath id="SVGID_00000103250248531947120600000002935802735785173644_"><use xlink:href="#SVGID_00000024688882664478783700000002005032596389526690_" style="overflow:visible"/></clipPath><g style="clip-path:url(#SVGID_00000103250248531947120600000002935802735785173644_)"><image style="overflow:visible" width="304" height="303" transform="matrix(0.48 0 0 0.48 -5.3921 -4.8928)" xlink:href="EC8429D5.jpg"/></g></g></g><g><g><path d="M67.6,33.2c11.3,0,12.7,0,17.2,0.2c4.1,0.2,6.4,0.9,7.9,1.5c2,0.8,3.4,1.7,4.9,3.2c1.5,1.5,2.4,2.9,3.2,4.9 c0.6,1.5,1.3,3.7,1.5,7.9c0.2,4.5,0.2,5.8,0.2,17.2s0,12.7-0.2,17.2c-0.2,4.1-0.9,6.4-1.5,7.9c-0.8,2-1.7,3.4-3.2,4.9 c-1.5,1.5-2.9,2.4-4.9,3.2c-1.5,0.6-3.7,1.3-7.9,1.5c-4.5,0.2-5.8,0.2-17.2,0.2c-11.3,0-12.7,0-17.2-0.2 c-4.1-0.2-6.4-0.9-7.9-1.5c-2-0.8-3.4-1.7-4.9-3.2c-1.5-1.5-2.4-2.9-3.2-4.9c-0.6-1.5-1.3-3.7-1.5-7.9c-0.2-4.5-0.2-5.8-0.2-17.2 s0-12.7,0.2-17.2c0.2-4.1,0.9-6.4,1.5-7.9c0.8-2,1.7-3.4,3.2-4.9c1.5-1.5,2.9-2.4,4.9-3.2c1.5-0.6,3.7-1.3,7.9-1.5 C54.9,33.2,56.2,33.2,67.6,33.2 M67.6,25.5c-11.5,0-13,0-17.5,0.3c-4.5,0.2-7.6,0.9-10.3,2c-2.8,1.1-5.2,2.5-7.5,4.9 c-2.4,2.4-3.8,4.7-4.9,7.5c-1.1,2.7-1.8,5.8-2,10.3c-0.2,4.5-0.3,6-0.3,17.5c0,11.5,0,13,0.3,17.5c0.2,4.5,0.9,7.6,2,10.3 c1.1,2.8,2.5,5.2,4.9,7.5c2.4,2.4,4.7,3.8,7.5,4.9c2.7,1.1,5.8,1.8,10.3,2c4.5,0.2,6,0.3,17.5,0.3c11.5,0,13,0,17.5-0.3 c4.5-0.2,7.6-0.9,10.3-2c2.8-1.1,5.2-2.5,7.5-4.9c2.4-2.4,3.8-4.7,4.9-7.5c1.1-2.7,1.8-5.8,2-10.3c0.2-4.5,0.3-6,0.3-17.5 s0-13-0.3-17.5c-0.2-4.5-0.9-7.6-2-10.3c-1.1-2.8-2.5-5.2-4.9-7.5c-2.4-2.4-4.7-3.8-7.5-4.9c-2.7-1.1-5.8-1.8-10.3-2 C80.6,25.5,79.1,25.5,67.6,25.5L67.6,25.5z" class="st1"/><path d="M67.6,46.2c-12.1,0-21.8,9.8-21.8,21.8s9.8,21.8,21.8,21.8c12.1,0,21.8-9.8,21.8-21.8S79.6,46.2,67.6,46.2z M67.6,82.2c-7.8,0-14.2-6.3-14.2-14.2s6.3-14.2,14.2-14.2S81.7,60.2,81.7,68S75.4,82.2,67.6,82.2z" class="st1"/><circle cx="90.3" cy="45.3" r="5.1" class="st1"/></g></g></g></svg>