<svg xmlns="http://www.w3.org/2000/svg" xmlns:xlink="http://www.w3.org/1999/xlink" id="Layer_1" x="0" y="0" version="1.1" viewBox="0 0 135 135" style="enable-background:new 0 0 135 135" xml:space="preserve"><style type="text/css">.st0{fill:#2967b0}.st1{fill:#fdfdfd}</style><g><circle cx="67.6" cy="67.8" r="67.5" class="st0"/><g><g><path d="M72.8,58.6c1.1-1.2,2-2.5,3.2-3.6c3.5-3.3,7.6-5,12.5-4.9c2.7,0,5.3,0.2,7.8,1c5.9,1.7,9.3,5.7,10.9,11.5 c1.2,4.3,1.4,8.7,1.5,13.1c0,9.3,0,18.6,0,28c0,0.9-0.2,1.1-1.1,1.1c-4.8,0-9.6,0-14.4,0c-0.8,0-1-0.3-1-1.1c0-8.9,0-17.7,0-26.6 c0-2.2-0.1-4.4-0.8-6.6c-1.1-4-4-6-8.2-5.8c-5.7,0.3-8.7,3.1-9.4,8.9c-0.2,1.4-0.3,2.8-0.3,4.2c0,8.6,0,17.3,0,25.9 c0,0.9-0.2,1.1-1.1,1.1c-4.8,0-9.7,0-14.5,0c-0.8,0-1-0.2-1-1c0-17.1,0-34.2,0-51.3c0-0.8,0.3-1,1.1-1c4.6,0,9.2,0,13.8,0 c0.8,0,1.1,0.3,1,1.1C72.8,54.5,72.8,56.6,72.8,58.6z" class="st1"/><path d="M46.5,78.1c0,8.5,0,16.9,0,25.4c0,0.9-0.2,1.2-1.2,1.2c-4.8-0.1-9.6,0-14.4,0c-0.8,0-1-0.2-1-1 c0-17.1,0-34.2,0-51.3c0-0.7,0.2-1,0.9-1c4.9,0,9.7,0,14.6,0c0.9,0,1.1,0.4,1.1,1.2C46.5,61.1,46.5,69.6,46.5,78.1z" class="st1"/><path d="M47.8,34.5c0,5.3-4.3,9.6-9.6,9.6c-5.2,0-9.6-4.3-9.6-9.5c0-5.3,4.3-9.6,9.6-9.6 C43.5,24.9,47.8,29.2,47.8,34.5z" class="st1"/></g></g></g></svg>