<svg xmlns="http://www.w3.org/2000/svg" width="53" height="53" fill="none" viewBox="0 0 53 53"><g clip-path="url(#clip0_162_878)"><path fill="#fff" d="M26.3397 52.6414C40.8762 52.6414 52.6604 40.8572 52.6604 26.3207C52.6604 11.7842 40.8762 0 26.3397 0C11.8032 0 0.019043 11.7842 0.019043 26.3207C0.019043 40.8572 11.8032 52.6414 26.3397 52.6414Z"/><path fill="#00BDF2" d="M48.8175 23.4254C48.3964 22.2147 47.2383 21.425 45.9749 21.425C45.1326 21.425 44.3956 21.7409 43.8166 22.3726C43.2375 21.7935 42.4479 21.425 41.6583 21.425C40.9213 21.425 40.237 21.6883 39.7106 22.162V21.9515C39.7106 21.7409 39.5 21.5303 39.2894 21.5303H37.2891C37.0258 21.5303 36.8679 21.7409 36.8679 21.9515V32.9009C36.8679 33.1641 37.0785 33.322 37.2891 33.322H39.2894C39.5 33.322 39.7106 33.1641 39.7106 32.9535V25.0047C39.7632 24.6362 40.0264 24.3203 40.3949 24.3203H40.7634C40.9213 24.3203 41.0792 24.373 41.1845 24.4782C41.3424 24.6362 41.4477 24.8467 41.4477 25.0573V32.9009C41.4477 33.1641 41.6583 33.322 41.8688 33.322H43.8692C44.0798 33.322 44.2904 33.1114 44.2904 32.9009V25.0573C44.2904 24.6362 44.6062 24.3203 44.9747 24.3203H45.3432C45.7643 24.3203 46.0275 24.6888 46.0275 25.0573V32.8482C46.0275 33.1114 46.2381 33.2694 46.4486 33.2694H48.449C48.7122 33.2694 48.8702 33.0588 48.8702 32.8482V24.4782C48.9754 24.1098 48.9228 23.7413 48.8175 23.4254Z"/><path fill="#00BDF2" d="M35.1307 21.4777H33.9726V19.6352C33.9726 19.4247 33.8146 19.2141 33.5514 19.2141C33.4988 19.2141 33.4988 19.2141 33.4461 19.2141C32.1828 19.5826 32.3933 21.3198 30.0771 21.4777H29.8665C29.8139 21.4777 29.8139 21.4777 29.7613 21.4777C29.6033 21.583 29.498 21.7409 29.498 21.9515V23.9518C29.498 24.215 29.7086 24.373 29.9192 24.373H31.1299V32.9535C31.1299 33.2167 31.3405 33.3746 31.5511 33.3746H33.5514C33.8146 33.3746 33.9726 33.1641 33.9726 32.9535V24.4256H35.1307C35.3939 24.4256 35.5518 24.215 35.5518 24.0045V22.0041C35.6044 21.6883 35.3939 21.4777 35.1307 21.4777Z"/><path fill="#213368" d="M27.9189 21.4777H25.9185C25.6553 21.4777 25.4974 21.6882 25.4974 21.8988V26.0575C25.4974 26.3207 25.2868 26.5312 25.0236 26.5312H24.1813C23.9181 26.5312 23.7076 26.3207 23.7076 26.0575V21.8988C23.7076 21.6356 23.497 21.4777 23.2864 21.4777H21.2861C21.0229 21.4777 20.8649 21.6882 20.8649 21.8988V26.4786C20.8123 28.0578 22.023 29.3739 23.6023 29.4791C23.6549 29.4791 23.7602 29.4791 23.8129 29.4791C23.8129 29.4791 25.1289 29.4791 25.1815 29.4791C25.4447 29.5318 25.6027 29.7424 25.6027 30.0056C25.6027 30.2161 25.3921 30.3741 25.1815 30.4267C25.1815 30.4267 25.1815 30.4267 25.1289 30.4267H22.181C21.9178 30.4267 21.7598 30.6373 21.7598 30.8478V32.8482C21.7598 33.1114 21.9704 33.2693 22.181 33.2693H25.4974C27.0766 33.322 28.3927 32.1112 28.4979 30.532C28.4979 30.4793 28.4979 30.3741 28.4979 30.3214V21.8988C28.34 21.6882 28.1294 21.5303 27.9189 21.4777Z"/><path fill="#213368" d="M8.38894 25.2152V26.4786C8.38894 26.7418 8.17837 26.9524 7.91517 26.9524H6.65177V24.4782H7.91517C8.17837 24.4782 8.38894 24.6888 8.38894 24.952V25.2152ZM8.54686 21.4777H4.12499C3.86178 21.4777 3.70386 21.6882 3.70386 21.8988V32.8482C3.70386 33.0588 3.86178 33.2693 4.12499 33.2693H6.178C6.44121 33.2693 6.59913 33.0588 6.59913 32.8482V29.795H8.54686C9.96818 29.8476 11.2316 28.7422 11.2842 27.3209C11.2842 27.2156 11.2842 27.1629 11.2842 27.0576V24.215C11.3369 22.7411 10.2314 21.5303 8.81007 21.4777C8.70479 21.4777 8.65215 21.4777 8.54686 21.4777Z"/><path fill="#213368" d="M16.7589 29.9529V30.2687V30.3214V30.374C16.7062 30.5319 16.4957 30.6899 16.3377 30.6899H15.4955C15.2323 30.6899 15.0217 30.4793 15.0217 30.2687V28.5316C15.0217 28.2684 15.2323 28.0578 15.4955 28.1104H16.3377C16.601 28.1104 16.8115 28.321 16.8115 28.5316V29.9529H16.7589ZM16.443 21.5303H13.653C13.3898 21.5303 13.2319 21.6882 13.2319 21.9514V23.8465C13.2319 24.1097 13.4425 24.3203 13.7057 24.2676H16.3377C16.5483 24.3203 16.7062 24.4782 16.7589 24.6888V24.952C16.7589 25.1625 16.601 25.3205 16.3904 25.3731H15.0744C13.5478 25.2678 12.1791 26.4259 12.0738 27.9525C12.0738 28.0052 12.0738 28.1104 12.0738 28.1631V30.5319C11.9685 32.0059 13.1266 33.2693 14.5479 33.3219C14.6532 33.3219 14.7585 33.3219 14.8638 33.3219H18.496C19.1277 33.3219 19.6542 32.8482 19.7068 32.2165V24.5308C19.6542 22.6884 18.7066 21.5303 16.443 21.5303Z"/></g><defs><clipPath id="clip0_162_878"><rect width="52.641" height="52.641" fill="#fff" transform="translate(0.019043)"/></clipPath></defs></svg>