<svg xmlns="http://www.w3.org/2000/svg" width="54" height="54" fill="none" viewBox="0 0 54 54"><g clip-path="url(#clip0_162_867)"><path fill="#5F259F" d="M26.5143 53.0095C41.1524 53.0095 53.019 41.1429 53.019 26.5047C53.019 11.8666 41.1524 0 26.5143 0C11.8761 0 0.00952148 11.8666 0.00952148 26.5047C0.00952148 41.1429 11.8761 53.0095 26.5143 53.0095Z"/><path fill="#fff" d="M38.5474 19.6135C38.5474 18.5533 37.6463 17.7051 36.6391 17.7051H33.0875L24.924 8.32244C24.1819 7.42128 23.0156 7.15623 21.7964 7.42128L18.9869 8.32244C18.5628 8.48147 18.4038 9.06458 18.6689 9.38263L27.5745 17.8111H14.1101C13.686 17.8111 13.3679 18.1292 13.3679 18.5533V20.0375C13.3679 21.0977 14.2691 21.9459 15.2763 21.9459H17.3436V29.0491C17.3436 34.4031 20.1531 37.4777 24.871 37.4777C26.3552 37.4777 27.5215 37.3186 29.0057 36.7355V41.4534C29.0057 42.7786 30.0659 43.8388 31.3911 43.8388H33.4585C33.8826 43.8388 34.3597 43.4147 34.3597 42.9376V21.7868H37.7523C38.1764 21.7868 38.4944 21.4688 38.4944 21.0447C38.5474 21.0447 38.5474 19.6135 38.5474 19.6135ZM29.0587 32.3357C28.1576 32.7598 26.9914 32.9188 26.0902 32.9188C23.7048 32.9188 22.5386 31.7526 22.5386 29.0491V21.9459H29.0587V32.3357Z"/></g><defs><clipPath id="clip0_162_867"><rect width="53.01" height="53.01" fill="#fff" transform="translate(0.00952148)"/></clipPath></defs></svg>