<svg xmlns="http://www.w3.org/2000/svg" width="12" height="12" fill="none" viewBox="0 0 12 12"><path fill="#000" d="M6.65284 1.35164C6.5324 1.11534 6.27788 0.964966 5.99837 0.964966C5.71885 0.964966 5.46661 1.11534 5.34389 1.35164L3.88269 4.19371L0.619398 4.64912C0.3467 4.68779 0.119452 4.86824 0.03537 5.11528C-0.0487119 5.36233 0.0194625 5.63515 0.214896 5.81774L2.58282 8.03253L2.02379 11.1625C1.97834 11.4202 2.09197 11.6823 2.31694 11.8348C2.54192 11.9874 2.83962 12.0067 3.08504 11.8843L6.00064 10.4127L8.91624 11.8843C9.16167 12.0067 9.45936 11.9895 9.68434 11.8348C9.90931 11.6802 10.0229 11.4202 9.97749 11.1625L9.41618 8.03253L11.7841 5.81774C11.9795 5.63515 12.05 5.36233 11.9636 5.11528C11.8773 4.86824 11.6523 4.68779 11.3796 4.64912L8.11405 4.19371L6.65284 1.35164Z"/></svg>