<svg xmlns="http://www.w3.org/2000/svg" width="32" height="33" fill="none" viewBox="0 0 32 33"><path fill="#000" fill-rule="evenodd" d="M16 32.965C24.8366 32.965 32 25.8015 32 16.965C32 8.12841 24.8366 0.964966 16 0.964966C7.16344 0.964966 0 8.12841 0 16.965C0 25.8015 7.16344 32.965 16 32.965ZM12.3737 15.7497C13.3355 16.7309 14.6401 17.282 16.0004 17.282C17.3606 17.282 18.6652 16.7309 19.627 15.7497C20.5889 14.7686 21.1293 13.4379 21.1293 12.0503C21.1293 10.6628 20.5889 9.3321 19.627 8.35096C18.6652 7.36983 17.3606 6.81863 16.0004 6.81863C14.6401 6.81863 13.3355 7.36983 12.3737 8.35096C11.4118 9.3321 10.8714 10.6628 10.8714 12.0503C10.8714 13.4379 11.4118 14.7686 12.3737 15.7497ZM24.976 25.8974C24.976 21.8714 21.7784 18.6098 17.8315 18.6098H14.1692C10.2223 18.6098 7.02474 21.8714 7.02474 25.8974C7.02474 26.5677 7.55767 27.1113 8.21481 27.1113H23.7859C24.443 27.1113 24.976 26.5677 24.976 25.8974Z" clip-rule="evenodd"/></svg>